<svg xmlns="http://www.w3.org/2000/svg" width="1080" height="1080" viewBox="0 0 1080 1080">
  <title>Cycling_LOGO_Transparente</title>
  <g>
    <path d="M448.334,668.137c-1.238-9.162-4.537-19.593-9.7-30.947-6.154-13.521-14.967-28.355-26.234-43.973a119.883,119.883,0,0,0,6.8-15.413c9.063-25.49,6.875-48.762-6.159-65.528s-35.05-24.627-61.985-22.131a124.26,124.26,0,0,0-24.694,4.956l-.7-14.652-15.233.723.485,10.226c-23.111-17.126-44.739-29.7-63.645-37.271-11.315-4.529-21.655-7.263-30.753-8.1a161.3,161.3,0,0,1,259.7,75.548l14.6-4.4a177.067,177.067,0,0,0-157.237-125.3c-46.8-3.184-92.256,12.241-127.988,43.426a181.7,181.7,0,0,0-16.554,16.437c-.265.187-.529.387-.793.588L172.618,437.6,162.16,448.7l16.649,15.686a174.533,174.533,0,0,0-33.561,91.848c-3.182,46.8,12.241,92.256,43.425,127.989s74.134,57.163,120.936,60.344q5.867.4,11.734.4a177.778,177.778,0,0,0,99.4-30.56q6.63-4.5,12.8-9.569c.1-.054.2-.106.307-.162L450.329,720.2l10.457-11.1-15.607-14.7a177.1,177.1,0,0,0,44.69-72.089l-14.519-4.666A161.01,161.01,0,0,1,448.334,668.137ZM352.455,505.33q4.188-.388,8.152-.387c17.757,0,31.917,5.8,40.386,16.692,9.727,12.513,11.088,30.647,3.83,51.06-7.678,21.6-23.906,42.82-45.692,59.757a156.239,156.239,0,0,1-33.231,19.9q-4.1-3-8.32-6.246a481.66,481.66,0,0,1-72.068-68.6c8.819-15.485,21.787-30.212,37.763-42.631C305.061,517.937,329.63,507.445,352.455,505.33ZM308.67,658.486A107.607,107.607,0,0,1,289.95,662c-21.571,2-38.81-3.792-48.538-16.3s-11.088-30.647-3.83-51.06c.234-.658.5-1.314.75-1.972a499.737,499.737,0,0,0,69.95,65.532C308.412,658.29,308.541,658.386,308.67,658.486Zm-108.978-195.4c6.569-3.236,17.807-2.907,32.881,1.946,18.284,5.887,42.218,18.439,70.4,39.46a174.092,174.092,0,0,0-29.053,18.345,165.52,165.52,0,0,0-38.653,42.141c-2.384-3.032-4.724-6.069-6.973-9.109-13-17.581-22.854-34.243-28.96-48.681-4.671-11.044-7.153-20.79-7.155-28.638C192.171,466.787,197.832,464,199.692,463.082ZM310.643,729.35c-42.738-2.9-81.974-22.493-110.48-55.157S157.558,600,160.463,557.266a159.477,159.477,0,0,1,18.246-64.124c2.255,10.012,6.626,21.168,12.736,33.005,8.692,16.842,20.932,35.073,35.848,53.446-1.524,3.291-2.9,6.6-4.08,9.929-9.063,25.49-6.875,48.761,6.159,65.528,11.451,14.729,29.829,22.585,52.389,22.584q4.681,0,9.6-.454a126.293,126.293,0,0,0,28.083-6.049l.934,19.676,15.233-.723-.612-12.9a278.836,278.836,0,0,0,33.889,19.072c12.386,5.776,23.794,9.636,33.9,11.428A162.106,162.106,0,0,1,310.643,729.35ZM426.134,691.5a24.985,24.985,0,0,1-11,2.127c-7.22,0-16.528-1.935-27.615-6.08-13.307-4.976-29.187-13.149-47.215-25.136a174.418,174.418,0,0,0,28.184-17.923,168.078,168.078,0,0,0,35.3-37.035C415.1,623.8,423.474,639.1,428.435,652.282c3.4,9.037,5.215,17.088,5.217,23.758C433.655,687.8,427.994,690.588,426.134,691.5Z" fill="#404b59"/>
    <path d="M920.726,532.134c-4.122.779-7.718,4.317-12.24,7.039-18.469-11.555-35.762-10.68-47.613,3.352-11.058,13.1-10.852,35.571.445,48.447,11.564,13.179,29.467,13.773,48.958,1.248-.294,13.877-6.051,20.526-18.776,20.413-7.129-.063-14.307-2.02-21.337-3.66-7.16-1.671-11.648-.353-13.207,5.015-1.873,6.452,1.343,9.986,7.2,12.115,13.648,4.959,27.561,5.313,41.679,2.75,14.783-2.683,24.093-11.894,25.142-26.3,1.492-20.5.958-41.162.783-61.75C931.707,534.321,926.619,531.02,920.726,532.134ZM892.8,583.443c-10.242.1-18.039-7.069-18.169-16.713-.125-9.325,7.955-17.205,17.748-17.308,9.9-.105,18.156,7.463,18.294,16.774C910.809,575.452,902.63,583.344,892.8,583.443Z" fill="#404b59"/>
    <path d="M596.3,531.335a8.481,8.481,0,0,0-3.861.963h0a11.985,11.985,0,0,0-5.761,7.1,35.919,35.919,0,0,0-1.237,6.944c-1.285,11.193-2.5,22.374-3.89,34.948-2.171-2.071-3.522-3.218-4.7-4.516-5.861-6.472-11.428-13.231-17.662-19.341-1.988-1.951-5.635-3.564-8.645-2.858a9.9,9.9,0,0,0-2.137.83c-2.78,1.417-5.951,4.132-6.622,6.138a11.823,11.823,0,0,0,.028,6.857h0a8.2,8.2,0,0,0,1.76,3.262c9.888,10.421,20.534,20.129,30.71,30.281,1.364,1.36,2.9,4.312,2.079,5.638-1.469,2.361-4.627,4.126-7.176,5.966a3.423,3.423,0,0,1-.442.265c-.851.434-1.865.569-2.769.953q-.537.233-1.038.487c-3.827,1.95-6.07,4.919-5.991,8.9.083,4.224,2.644,6.251,7.071,5.576a39.613,39.613,0,0,0,11.715-3.83c7.4-3.771,14.307-10.264,16.178-20.1.485-2.541,1.16-5.1,1.556-7.63q4.383-27.855,8.626-55.679a29.491,29.491,0,0,0,.545-4.542l-.567-2C602.155,533.724,599.375,531.349,596.3,531.335Z" fill="#404b59"/>
    <path d="M814.079,531.773c-5.877,1.329-11.206,5.067-17.473,8.031-1.64-5.69-5.868-8.594-12.383-7.783-5.272.656-8.7,3.709-8.751,9.031-.2,19.392-.256,38.79.016,58.179.085,6.034,4.133,8.979,10.147,9.121,7.232.17,10.979-3.619,11.252-12.1.36-11.143-.039-22.321.642-33.439.526-8.585,8.1-13.636,15.957-11.274,6.579,1.977,8.831,7.239,8.933,13.518.175,10.91-.129,21.833.243,32.735.24,7.054,4.565,10.706,11.274,10.557,6.358-.142,10.245-3.785,10.332-10.613.18-14.3.441-28.633-.155-42.918C843.42,538.225,830.3,528.106,814.079,531.773Z" fill="#404b59"/>
    <path d="M523.215,585.025c-5.722,2.2-11.8,5.222-17.62,5.021-7.91-.275-12.993-6.309-14.81-14.028-2.036-8.648-.048-16.571,7-22.341,6.375-5.218,13.413-4.92,20.351-.666a38.243,38.243,0,0,0,3.8,2.165c5.541,2.572,10.726,2.217,13.959-3.376,3.195-5.527,1.2-10.423-3.9-13.8a44.267,44.267,0,0,0-12.552-5.833c-9.747-2.724-19.776-1.509-29.761,3.223-14.35,6.8-20.584,19.17-21.142,31.182-.172,30.4,25.63,48.859,50.333,41.908a39.3,39.3,0,0,0,14.8-7.73c4.439-3.6,5.269-8.342,2.416-12.951C533.051,582.891,528.389,583.033,523.215,585.025Z" fill="#404b59"/>
    <path d="M666.993,584.825c-2.409,1.142-4.545,3.232-7.04,3.738-4.372.887-9.146,1.923-13.356,1.034-7.993-1.688-11.988-7.957-13.276-15.642-1.389-8.287,1.29-15.534,7.957-20.649,6.544-5.02,13.473-4.138,20.426-.029,7.977,4.714,14.2,4.054,17.265-1.3,3.26-5.692.286-12.168-7.522-16.38-14.487-7.815-34.85-5.539-47.206,5.278-11.859,10.381-16.037,28.417-10.2,44.029,5.664,15.145,19.777,24.528,36.959,24.575,10.677.029,20.274-3.339,26.208-9.147,3.776-3.7,4.758-8.065,1.945-12.483C676.274,583.328,671.822,582.537,666.993,584.825Z" fill="#404b59"/>
    <path d="M712.83,516.874c-.07-7.955-3.7-12.045-10.363-12.216-6.991-.179-11.272,4.046-11.324,12.214q-.252,39.7,0,79.409c.051,8.248,4.137,12.224,11.334,12.08,6.888-.137,10.283-3.92,10.358-12.079.119-13.112.032-26.226.031-39.34C712.863,543.586,712.949,530.229,712.83,516.874Z" fill="#404b59"/>
    <path d="M758.149,567.172c-2.6-7.6-5.117-15.213-7.83-22.8-2.442-6.816-6.948-10.013-12.922-9.434l-.336.037c-5.772.709-8.373,4.749-6.245,11.235q7.695,23.46,16.063,46.854c2.331,6.5,7.139,9.353,13.1,8.62.124-.015.248-.032.372-.05,5.887-.86,7.9-4.447,5.779-11.028C763.61,582.78,760.824,574.978,758.149,567.172Z" fill="#404b59"/>
    <path d="M734.52,529.254q.324-.03.638-.068c6.449-.792,9.434-4.464,7.841-9.734-1.705-5.665-7-8.8-13.666-8.1-.108.011-.213.023-.319.036h0c-6.52.8-9.652,4.822-7.82,10.091C723.071,526.857,728.158,529.829,734.52,529.254Z" fill="#404b59"/>
  </g>
</svg>
