<svg xmlns="http://www.w3.org/2000/svg" width="1080" height="1080" viewBox="0 0 1080 1080">
  <title>Cycling_LOGO_monograma_Transparente_verde </title>
  <path d="M787.58,729.566c-2.349-17.381-8.607-37.17-18.41-58.709-11.674-25.651-28.392-53.792-49.766-83.42A227.444,227.444,0,0,0,732.3,558.2c17.192-48.356,13.042-92.5-11.684-124.311s-66.493-46.719-117.59-41.984a235.917,235.917,0,0,0-46.847,9.4l-1.319-27.795-28.9,1.371.92,19.4c-43.843-32.489-84.873-56.351-120.739-70.706-21.465-8.592-41.081-13.779-58.341-15.368,61.7-53.1,139.779-79.332,220.125-73.872A306.982,306.982,0,0,1,840.475,451.526l27.7-8.356a335.91,335.91,0,0,0-298.288-237.7c-88.787-6.039-175.017,23.223-242.8,82.382a345.027,345.027,0,0,0-31.4,31.183c-.5.355-1,.734-1.5,1.115l-29.646-27.932-19.839,21.057,31.585,29.758a331.115,331.115,0,0,0-63.669,174.243c-6.036,88.786,23.222,175.015,82.381,242.8S435.623,868.52,524.409,874.555q11.13.756,22.26.754a337.257,337.257,0,0,0,188.565-57.974q12.577-8.531,24.281-18.154c.194-.1.387-.2.582-.306l31.267,29.459L811.2,807.277l-29.607-27.9a335.956,335.956,0,0,0,84.778-136.757l-27.542-8.853A305.453,305.453,0,0,1,787.58,729.566ZM605.691,420.709q7.947-.735,15.466-.733c33.685,0,60.549,11,76.614,31.666,18.453,23.737,21.034,58.138,7.266,96.863-14.566,40.974-45.351,81.233-86.682,113.363a296.293,296.293,0,0,1-63.041,37.744q-7.777-5.7-15.782-11.848A913.766,913.766,0,0,1,402.813,557.629c16.73-29.377,41.332-57.315,71.638-80.874C515.782,444.625,562.391,424.721,605.691,420.709ZM522.629,711.256a204.245,204.245,0,0,1-35.513,6.658c-40.923,3.795-73.626-7.194-92.081-30.932S374,628.843,387.769,590.118c.444-1.249.95-2.494,1.424-3.741A947.938,947.938,0,0,0,521.892,710.7C522.138,710.885,522.383,711.067,522.629,711.256ZM315.89,340.563c12.462-6.139,33.78-5.516,62.377,3.692,34.686,11.168,80.091,34.98,133.544,74.857a330.313,330.313,0,0,0-55.116,34.8c-30.021,23.338-55.03,50.779-73.327,79.944-4.522-5.752-8.962-11.513-13.227-17.28-24.666-33.353-43.357-64.961-54.94-92.351-8.861-20.952-13.57-39.44-13.573-54.328C301.622,347.59,312.361,342.3,315.89,340.563ZM526.371,845.691c-81.077-5.511-155.51-42.672-209.587-104.637s-80.826-140.741-75.315-221.818a302.552,302.552,0,0,1,34.615-121.648c4.276,18.994,12.57,40.158,24.16,62.613,16.49,31.95,39.709,66.536,68.007,101.39-2.892,6.244-5.5,12.527-7.741,18.836-17.192,48.356-13.042,92.5,11.685,124.311,21.722,27.943,56.587,42.845,99.385,42.844q8.88,0,18.205-.861a239.576,239.576,0,0,0,53.275-11.475l1.771,37.326,28.9-1.371-1.161-24.476a529.115,529.115,0,0,0,64.291,36.181c23.5,10.957,45.137,18.279,64.312,21.678A307.531,307.531,0,0,1,526.371,845.691Zm219.094-71.8c-5.363,2.641-12.354,4.036-20.864,4.036-13.7,0-31.354-3.671-52.387-11.535-25.245-9.439-55.37-24.944-89.57-47.685a330.988,330.988,0,0,0,53.467-34C662.785,663.973,685.5,640,703.075,614.451c21.464,31,37.344,60.029,46.755,85.036,6.452,17.144,9.894,32.417,9.9,45.071C759.732,766.866,748.994,772.156,745.465,773.894Z" fill="#a9dda6"/>
</svg>
